<svg width="50" height="50" viewBox="0 0 50 50" fill="none" xmlns="http://www.w3.org/2000/svg">
<circle cx="25" cy="25" r="24" fill="#101524" stroke="#FEBAAD" stroke-width="2"/>
<path d="M15.4644 35.4793V26.8183L12 28.7237V35.4793H15.4644Z" fill="#FEBAAD"/>
<path d="M16.3312 24.2207H19.7956V35.48H16.3312V24.2207Z" fill="#FEBAAD"/>
<path d="M24.9906 22.4885V35.4799H28.455V23.8832L24.9906 22.4885Z" fill="#FEBAAD"/>
<path d="M29.3215 24.2201V35.468H32.7858V25.6149L29.3215 24.2201Z" fill="#FEBAAD"/>
<path d="M33.6526 25.9529V35.457H37.117V27.3476L33.6526 25.9529Z" fill="#FEBAAD"/>
<path d="M24.1258 35.4794V25.0862L20.6614 27.1648V35.4794H24.1258Z" fill="#FEBAAD"/>
<path d="M32.7856 32.5352V22.142L29.3212 24.2206V32.5352H32.7856Z" fill="#FEBAAD"/>
<path d="M37.117 29.7635V19.3703L33.6526 21.4489V29.7635H37.117Z" fill="#FEBAAD"/>
<path d="M15.4644 35.4793V26.8183L12 28.7237V35.4793H15.4644Z" fill="#FEBAAD"/>
<path d="M16.3312 24.2207H19.7956V35.48H16.3312V24.2207Z" fill="#FEBAAD"/>
<path d="M24.9906 22.4885V35.4799H28.455V23.8832L24.9906 22.4885Z" fill="#FEBAAD"/>
<path d="M29.3215 24.2201V35.468H32.7858V25.6149L29.3215 24.2201Z" fill="#FEBAAD"/>
<path d="M33.6526 25.9529V35.457H37.117V27.3476L33.6526 25.9529Z" fill="#FEBAAD"/>
<path d="M24.1258 35.4794V25.0862L20.6614 27.1648V35.4794H24.1258Z" fill="#FEBAAD"/>
<path d="M32.7856 32.5352V22.142L29.3212 24.2206V32.5352H32.7856Z" fill="#FEBAAD"/>
<path d="M37.117 29.7635V19.3703L33.6526 21.4489V29.7635H37.117Z" fill="#FEBAAD"/>
<path d="M12 14.0004H37.1168V17.4648H12V14.0004Z" fill="#FEBAAD"/>
<path d="M12 14.0004V27.8575L15.4644 25.9521V27.8576L15.4644 14L12 14.0004Z" fill="#FEBAAD"/>
<path d="M12 14.0004H37.1168V17.4648H12V14.0004Z" fill="#FEBAAD"/>
<path d="M12 14.0004V27.8575L15.4644 25.9521V27.8576L15.4644 14L12 14.0004Z" fill="#FEBAAD"/>
<path fill-rule="evenodd" clip-rule="evenodd" d="M33.6526 20.5826H37.117L37.1168 14.0004L33.6526 14.0003V20.5826ZM33.6526 20.5826L37.117 18.5039L37.117 20.5826H33.6526Z" fill="#FEBAAD"/>
<path d="M12 14.0004H37.1168V17.4648H12V14.0004Z" fill="#FEBAAD"/>
<path d="M12 14.0004V27.8575L15.4644 25.9521V27.8576L15.4644 14L12 14.0004Z" fill="#FEBAAD"/>
<path d="M12 14.0004H37.1168V17.4648H12V14.0004Z" fill="#FEBAAD"/>
<path d="M12 14.0004V27.8575L15.4644 25.9521V27.8576L15.4644 14L12 14.0004Z" fill="#FEBAAD"/>
<path fill-rule="evenodd" clip-rule="evenodd" d="M33.6526 20.5826H37.117L37.1168 14.0004L33.6526 14.0003V20.5826ZM33.6526 20.5826L37.117 18.5039L37.117 20.5826H33.6526Z" fill="#FEBAAD"/>
</svg>
